<svg width="536" height="118" viewBox="0 0 536 118" fill="none" xmlns="http://www.w3.org/2000/svg">
<path d="M135.345 9.79138H161.856L179.572 64.7654H179.812L197.528 9.79138H224.039V95.99H203.552V42.3445H203.312L187.284 95.99H172.099L156.072 42.3445H155.832V95.99H135.345V9.79138Z" fill="black"/>
<path d="M263.802 45.598C256.811 45.598 253.438 48.2502 252.837 54.1563H234.76C235.361 42.3442 243.796 32.3371 263.922 32.3371C281.277 32.3371 290.915 39.0903 290.915 58.498V86.8297C290.915 90.0836 292.117 91.4121 294.528 91.4121V95.9945C290.674 97.4433 287.176 97.9247 283.322 97.9247C274.647 97.9247 272.236 93.8236 272.236 89.4867H271.996C268.022 94.0691 260.79 97.9247 252.596 97.9247C239.581 97.9247 232.349 90.5698 232.349 80.2017C232.349 67.9034 241.385 62.238 255.848 59.3451C263.802 57.776 271.635 56.5726 271.635 51.3886C271.635 47.7737 269.104 45.6028 263.802 45.6028V45.598ZM271.635 73.4484V65.9732C269.224 66.9359 266.212 67.7831 261.752 68.7457C254.16 70.4352 251.629 73.5688 251.629 77.4243C251.629 82.488 254.641 84.6589 259.342 84.6589C267.656 84.6589 271.635 79.3545 271.635 73.4484Z" fill="black"/>
<path d="M321.285 9.79138V95.99H302.005V9.79138H321.285Z" fill="black"/>
<path d="M349.601 9.79138V95.99H330.321V9.79138H349.601Z" fill="black"/>
<path d="M389.367 97.9202C368.76 97.9202 356.346 84.2982 356.346 65.1312C356.346 45.9642 368.76 32.3423 389.367 32.3423C409.975 32.3423 422.268 45.9642 422.268 65.1312C422.268 84.2982 409.854 97.9202 389.367 97.9202ZM389.367 83.4511C397.802 83.4511 402.984 77.0637 402.984 65.1264C402.984 53.1892 397.802 46.8018 389.367 46.8018C380.933 46.8018 375.63 53.1892 375.63 65.1264C375.63 77.0637 380.812 83.4511 389.367 83.4511Z" fill="black"/>
<path d="M468.781 33.661V50.5368H468.54C458.657 48.727 448.173 54.1517 448.173 67.2923V95.9851H428.893V34.2675H448.173V44.3949H448.414C451.426 37.5214 456.728 33.1845 463.478 33.1845C465.167 33.1845 466.611 33.1845 468.781 33.6658V33.661Z" fill="black"/>
<path d="M514.691 97.1983C509.389 112.991 503.606 117.333 490.591 117.333C487.338 117.333 483.84 116.972 479.866 116.129V101.665H480.106C485.409 102.868 489.749 102.267 491.793 99.1332C493.603 96.3607 493.242 92.5004 491.312 87.0756L471.186 34.2725H490.465L504.443 74.7774H504.683L516.371 34.2725H535.65L514.682 97.2031L514.691 97.1983Z" fill="black"/>
<path d="M19.1442 52.3843L33.9419 82.699L43.6967 62.7126L53.2692 82.3236L42.3145 104.767H25.5694L0 52.3836L19.1442 52.3843Z" fill="black" fill-opacity="0.6"/>
<path d="M67.8829 52.3836V52.385L82.6807 82.699L97.4776 52.3836H116.623L91.0532 104.767H74.3082L58.3113 71.9953L58.3076 72.0025L48.7342 52.3915L48.7388 52.3836H67.8829Z" fill="black"/>
<path d="M58.3113 32.7718L58.3178 32.7569L67.8903 52.3664L67.883 52.3821V52.3836H48.7388L33.9419 22.0682L19.1442 52.3829L3.03984e-06 52.3836L25.5694 0H42.3145L58.3113 32.7718Z" fill="black"/>
<path d="M116.623 52.3836H97.4776L82.6807 22.0682L72.9278 42.046L63.3562 22.4357L74.3082 0H91.0532L116.623 52.3836Z" fill="black" fill-opacity="0.6"/>
</svg>
