<svg width="240" height="53" viewBox="0 0 240 53" fill="none" xmlns="http://www.w3.org/2000/svg">
<path d="M60.4966 4.37659H72.3467L80.2653 28.949H80.3729L88.2916 4.37659H100.142V42.9058H90.9842V18.9273H90.8766L83.7128 42.9058H76.9254L69.7616 18.9273H69.654V42.9058H60.4966V4.37659Z" fill="white"/>
<path d="M117.915 20.3815C114.79 20.3815 113.282 21.567 113.013 24.2069H104.933C105.202 18.9271 108.972 14.4541 117.969 14.4541C125.726 14.4541 130.034 17.4727 130.034 26.1476V38.8114C130.034 40.2658 130.571 40.8596 131.649 40.8596V42.9078C129.926 43.5554 128.363 43.7706 126.64 43.7706C122.762 43.7706 121.685 41.9375 121.685 39.999H121.577C119.801 42.0472 116.568 43.7706 112.906 43.7706C107.088 43.7706 103.856 40.4831 103.856 35.8487C103.856 30.3516 107.895 27.8193 114.36 26.5262C117.915 25.8248 121.416 25.287 121.416 22.9698C121.416 21.354 120.285 20.3837 117.915 20.3837V20.3815ZM121.416 32.8302V29.4889C120.339 29.9192 118.992 30.2978 116.999 30.7281C113.605 31.4833 112.474 32.8839 112.474 34.6073C112.474 36.8707 113.82 37.841 115.921 37.841C119.637 37.841 121.416 35.4701 121.416 32.8302Z" fill="white"/>
<path d="M143.609 4.37659V42.9058H134.991V4.37659H143.609Z" fill="white"/>
<path d="M156.265 4.37659V42.9058H147.648V4.37659H156.265Z" fill="white"/>
<path d="M174.04 43.7686C164.829 43.7686 159.28 37.6798 159.28 29.1125C159.28 20.5452 164.829 14.4564 174.04 14.4564C183.251 14.4564 188.746 20.5452 188.746 29.1125C188.746 37.6798 183.198 43.7686 174.04 43.7686ZM174.04 37.3012C177.81 37.3012 180.127 34.4461 180.127 29.1104C180.127 23.7746 177.81 20.9196 174.04 20.9196C170.27 20.9196 167.9 23.7746 167.9 29.1104C167.9 34.4461 170.216 37.3012 174.04 37.3012Z" fill="white"/>
<path d="M209.537 15.0458V22.589H209.429C205.012 21.7801 200.325 24.2048 200.325 30.0784V42.9036H191.708V15.3169H200.325V19.8437H200.433C201.779 16.7713 204.149 14.8328 207.167 14.8328C207.922 14.8328 208.567 14.8328 209.537 15.048V15.0458Z" fill="white"/>
<path d="M230.058 43.4459C227.688 50.505 225.103 52.4456 219.285 52.4456C217.831 52.4456 216.268 52.2843 214.491 51.9077V45.4425H214.599C216.969 45.9803 218.909 45.7114 219.823 44.3108C220.632 43.0715 220.47 41.346 219.608 38.9212L210.612 15.3192H219.229L225.477 33.4241H225.585L230.808 15.3192H239.426L230.054 43.448L230.058 43.4459Z" fill="white"/>
<path d="M8.5571 23.4149L15.1714 36.965L19.5316 28.0314L23.8104 36.7972L18.9138 46.8291H11.4291L0 23.4146L8.5571 23.4149Z" fill="white" fill-opacity="0.7"/>
<path d="M30.3425 23.4146V23.4152L36.9568 36.965L43.5707 23.4146H52.1283L40.6992 46.8291H33.2144L26.0641 32.1806L26.0625 32.1838L21.7833 23.4181L21.7854 23.4146H30.3425Z" fill="white"/>
<path d="M26.0641 14.6484L26.067 14.6417L30.3458 23.4069L30.3425 23.4139V23.4145H21.7854L15.1714 9.86409L8.5571 23.4142L0 23.4145L11.4291 0H18.9138L26.0641 14.6484Z" fill="white"/>
<path d="M52.1283 23.4145H43.5707L36.9568 9.86409L32.5974 18.7938L28.3191 10.0284L33.2144 0H40.6992L52.1283 23.4145Z" fill="white" fill-opacity="0.7"/>
</svg>
